# xmcd CD database file
#
# Track frame offsets:
#	150
#	22177
#	43371
#	65490
#	87251
#	113758
#	132079
#	148037
#	175093
#	192330
#	219860
#	239397
#	265691
#	281594
#	300350
#	316283
#
# Disc length: 4471 seconds
#
# Revision: 1
# Processed by: cddbd v1.5.2PL0 Copyright (c) Steve Scherf et al.
# Submitted via: CDex 1.70beta3
#
DISCID=e4117510
DTITLE=Steve Perry - For The Love Of Strange Medicine
DYEAR=1994
DGENRE=Melodic Rock
TTITLE0=You Better Wait
TTITLE1=Young Hearts Forever
TTITLE2=I Am
TTITLE3=Stand Up (Before It's Too Late)
TTITLE4=For The Love Of Strange Medicine
TTITLE5=Donna Please
TTITLE6=Listen To Your Heart
TTITLE7=Tuesday Heartache
TTITLE8=Missing You
TTITLE9=Somewhere There's Hope
TTITLE10=Anyway
TTITLE11=If You Need Me, Call Me (Bonus Track)
TTITLE12=One More Time (Bonus Track)
TTITLE13=Can't Stop (Bonus Track)
TTITLE14=Friends Of Mine (Bonus Track)
TTITLE15=Missing You LIVE (Bonus Track)
EXTD=YEAR: 1994
EXTT0=
EXTT1=
EXTT2=
EXTT3=
EXTT4=
EXTT5=
EXTT6=
EXTT7=
EXTT8=
EXTT9=
EXTT10=
EXTT11=
EXTT12=
EXTT13=
EXTT14=
EXTT15=
PLAYORDER=
